<svg width="29" height="40" viewBox="0 0 29 40" fill="none" xmlns="http://www.w3.org/2000/svg">
<g clip-path="url(#clip0_1048_7953)">
<path d="M17.7945 0H0V40H28.7593V10.9648L17.7945 0Z" fill="#F1F1F1"/>
<path d="M17.7944 0L28.7592 10.9648H20.1319C18.8414 10.9648 17.7944 9.91782 17.7944 8.62737V0Z" fill="#FF873B"/>
<path d="M4.53972 23.8049C4.51782 23.8062 4.5 23.8234 4.5 23.8454V25.7652C4.5 25.7871 4.51779 25.8049 4.53972 25.8049H23.5C24.0523 25.8049 24.5 25.3572 24.5 24.8049C24.5 24.2526 24.0523 23.8049 23.5 23.8049H4.53972Z" fill="#2B475D"/>
<path d="M4.53972 28.8049C4.51782 28.8062 4.5 28.8234 4.5 28.8454V30.7652C4.5 30.7871 4.51779 30.8049 4.53972 30.8049H23.5C24.0523 30.8049 24.5 30.3572 24.5 29.8049C24.5 29.2526 24.0523 28.8049 23.5 28.8049H4.53972Z" fill="#2B475D"/>
<path d="M4.53972 18.8049C4.51782 18.8062 4.5 18.8234 4.5 18.8454V20.7652C4.5 20.7871 4.51779 20.8049 4.53972 20.8049H23.5C24.0523 20.8049 24.5 20.3572 24.5 19.8049C24.5 19.2526 24.0523 18.8049 23.5 18.8049H4.53972Z" fill="#2B475D"/>
</g>
<defs>
<clipPath id="clip0_1048_7953">
<rect width="28.7593" height="40" rx="8" fill="white"/>
</clipPath>
</defs>
</svg>
